<svg version="1.0" xmlns="http://www.w3.org/2000/svg" width="936" height="936" viewBox="0 0 702 702"><path d="M71.8 265.6c-32.4 39.3-49.6 78.1-47.4 106.9 1.5 19.3 8.3 32.4 21.2 41 6.4 4.3 16.6 8.1 24.5 9.3l5.4.7.3 20.2c.2 16.2.5 20.2 1.6 20.6 3 1.2 3.6-2.1 3.8-21.3l.3-19.4 6.5-1.2c13.2-2.4 22.8-7.3 30.7-15.6 9.6-10.2 13.5-21.8 13.5-39.9-.1-22.2-8.9-46.1-27.2-73.9-7.3-11-25.5-35-26.6-35-.2 0-3.2 3.4-6.6 7.6zm7.2 13.2v15.8l5 4.9 5 4.9v7.1c0 5.8.4 7.4 2 8.8 1.1.9 2 2.8 2 4.1 0 5.4-7.7 6.4-9.5 1.2-.8-2.4-.6-3.1 1.3-4.6 1.9-1.5 2.2-2.8 2.2-8.2 0-6.1-.2-6.5-4-10.3l-4-3.9v14c0 12.7.2 14.1 2 15.7 3.5 2.9 1.7 9.7-2.6 9.7-1.9 0-5.4-3.6-5.4-5.5 0-.8.9-2.4 2-3.5 1.9-1.9 2-3.3 2-23.7v-21.6l-3.5 3.9-3.4 3.9-.1 12.1c0 10.2.3 12.3 1.6 12.8 2 .8 1.5 6.5-.7 7.9-.9.5-2.8.7-4.2.3-3.7-.9-4.6-5-1.8-8 1.9-2 2.1-3.4 2.1-14v-11.9l5-4.5 5-4.5v-9.4c0-5.5.4-9.3 1-9.3s1 5.9 1 15.8zm22.5 29.2c0 1.7-.7 2.6-2.5 3-2.5.6-2.5.6-2.8 13.5l-.3 13-4.6 4.7c-2.6 2.7-5.2 4.8-5.7 4.8-.6 0 1.2-2.3 3.9-5l5-5.1.5-14.7c.3-8.1.9-15.3 1.4-16 .4-.7 1.8-1.2 2.9-1 1.6.2 2.2 1 2.2 2.8zm-43.7 4.2c.2 1.4 1 3.2 1.8 3.8 1 .9 1.4 3.7 1.4 10.4v9.2l5 4.9c2.8 2.7 5 5.4 5 5.9 0 .6-2.5-1.4-5.5-4.4l-5.5-5.4v-9c0-9.5-1.3-12.6-5.2-12.6-2.1 0-3.3-2.2-2.4-4.6 1-2.6 5.1-1.3 5.4 1.8zm53.2.1c0 .8-.9 2.2-2 3.2-1.7 1.6-2 3.1-2 12 0 9.8-.1 10.2-2.9 12.9-1.9 1.9-2.7 3.4-2.4 5 .9 4.3-5.4 7.5-8.5 4.4-3.1-3.1 0-9.2 4.3-8.6 1.3.2 3.2-.6 4.4-1.6 1.9-1.7 2.1-3 2.1-12.2 0-9.6.2-10.5 2.6-13.3 2.7-3.3 4.4-4 4.4-1.8zM50.5 334c4.4 4.4 6.7 6 8.6 6 5.1 0 7.5 4.6 4.2 8.2-3.2 3.6-8.3 1.1-8.3-4 0-1.9-1.7-4.3-5.7-8.4-4.7-4.7-6.3-5.8-9-5.8-1.8 0-3.3-.5-3.3-1 0-.6 1.7-1 3.8-1 3.3 0 4.5.8 9.7 6zm-6.5 7c0 .5.8 1 1.8 1s4.9 3.1 8.7 7c6.4 6.5 7.3 7 11.2 7 2.3 0 4.5.4 4.8 1 .4.6-1.2 1-4.2 1-4.6 0-5-.3-12.5-7.7-7.4-7.3-7.8-7.6-9.6-6-1 .9-2.3 1.7-2.9 1.7-1.7 0-3.6-2.8-2.9-4.5.6-1.7 5.6-2.1 5.6-.5zm75 5.5c.6.8.9 2.3.5 3.5-.7 2.1-3.9 2.8-5 1-.3-.6-2.7-1-5.2-1-4.1 0-5.1.5-9.4 4.5-4.2 3.9-5.4 4.5-9.3 4.5-2.5 0-4.8-.5-5.1-1-.4-.6 1.4-1 4.6-1 4.9 0 5.4-.3 9.1-4.5 3.7-4.2 4.3-4.5 9-4.5 3.1 0 5.5-.6 6.4-1.5 1.9-1.9 2.8-1.9 4.4 0zM40.5 361c.4.6 6.7 1 15.6 1 9.3 0 14.9.4 14.9 1s-5.6 1-14.9 1c-8.9 0-15.2.4-15.6 1-.9 1.5-4.5 1.2-5.1-.5-.4-.8-.4-2.2 0-3 .6-1.7 4.2-2 5.1-.5zm80.5.5c1 1.2 1 1.8 0 3-1.4 1.7-5 2-5 .5 0-.6-5.7-1-15-1s-15-.4-15-1 5.7-1 15-1 15-.4 15-1c0-1.5 3.6-1.2 5 .5zm-20 5.5c1.1 1.1 2.6 2 3.3 2 .7 0 3.7 2.5 6.7 5.5 5.1 5.1 5.8 5.5 10.2 5.5 2.6 0 5 .4 5.3 1 .4.6-1.6 1-5.2 1-5.7 0-6-.1-10.8-5-4.5-4.6-8.5-6.5-8.5-4 0 .6-1.1 1.5-2.4 2.1-3.7 1.7-6.6-.3-6.6-4.6 0-5.2 4.4-7.1 8-3.5zm-37.5 3c1.5 1.6 1.7 2.6.9 4.8-1.1 3.2-4.8 4-17.9 4.1-7.7.1-8 .2-11.7 3.8-2.1 2-4.1 3.3-4.5 2.9-.4-.4 1.1-2.5 3.4-4.7l4.2-3.9H55v-2.9c0-5.6 5-7.9 8.5-4.1zm1 11c-6.5 6.6-7.2 7-11.4 7-2.8 0-5.1.6-6.3 1.7-2.2 2-5.3.7-5.3-2.2 0-2.9 3.1-4.2 5.3-2.2 1 .9 3.4 1.7 5.2 1.7 2.8 0 4.6-1.2 10.7-7.1 4.1-4 7.7-6.9 8-6.5.4.4-2.4 3.8-6.2 7.6zm25.5-4.5c3.2 3.3 3.8 3.5 9.5 3.5 4.9 0 6.6.4 8 2 1 1.1 2.8 2 4 2 2.9 0 4.1 2.9 2 4.9-1.8 1.9-4.8.5-5.4-2.5-.6-3.6-2.2-4.4-8.5-4.4-6 0-6.3-.1-10.6-4.5-2.4-2.5-4-4.5-3.4-4.5.6 0 2.5 1.6 4.4 3.5zm-7.4 11c1.4 2.1 1.5 3.1.6 5.1-.7 1.3-1.9 2.7-2.7 3-1.1.5-1.5 2.1-1.5 6 0 3 .4 5.4.8 5.4.5 0 2.1-1.4 3.7-3 1.8-1.9 3.9-3 5.5-3 1.5 0 3.5-.9 4.5-2 3.4-3.8 8.5-2 8.5 3s-5.1 6.8-8.5 3c-2.8-3.1-5.7-2.4-10.3 2.3-3.7 3.8-4.2 4.8-4.2 9 0 2.6-.4 4.7-1 4.7-.5 0-1-1.5-1-3.3 0-2.4-1.3-4.8-5-9.4-2.8-3.5-5-7.2-5-8.5 0-1.8-.8-2.6-3.2-3.3-2.8-.9-3.4-1.5-3.6-4.5-.5-5.2 4-7.8 8.3-4.7 1.5 1.1 1.8 2.6 1.6 8.3-.1 6.5.1 7.1 3.4 10.9l3.4 4 .1-7.1c0-5.8-.3-7.4-2-8.9-2.4-2.2-2.6-5.2-.3-7.7 2.3-2.6 5.9-2.3 7.9.7zm424.4-99c0 2.3.4 2.5 4.5 2.5h4.5v70h-4.5c-3.8 0-4.5.3-4.5 2 0 1.9.7 2 14.5 2s14.5-.1 14.5-2c0-1.7-.7-2-4-2h-4v-75h-21v2.5zm-303.3 3.2c-.4.3-.7 4.8-.7 10v9.3h8v-11h15v60h-5c-4.7 0-5 .2-5 2.5v2.5h33v-2.5c0-2.3-.3-2.5-5-2.5h-5v-60h15v11h8.1l-.3-9.8-.3-9.7-3.3-.3c-2.2-.2-3.4.2-3.8 1.2-.9 2.3-42.9 2.4-43.8.1-.5-1.5-5.7-2.1-6.9-.8z"/><path d="M282.3 321.7l-5.3 5.7V318h-10c-9.3 0-10 .1-10 2 0 1.7.7 2 4 2h4v39h-4c-3.3 0-4 .3-4 2 0 1.9.7 2 15 2 14.2 0 15-.1 15-1.9 0-1.7-.8-2-4.7-2.3l-4.8-.3-.3-12.8-.3-12.7 3.9-4.1c4.6-5 8-5.4 12.1-1.5l2.8 2.7 1.7-5.8 1.6-5.8-2.5-2.3c-4.5-3.9-8.2-3-14.2 3.5zm35.2-4.8c-13.2 4.3-19.5 20.9-13.1 34.6 2.8 6.1 9.1 12 14.3 13.4 5.8 1.7 16.2 1.2 21.3-.8 3.6-1.5 4.6-2.4 4.8-4.5.3-2.4.1-2.6-1.6-1.7-1.1.6-4.1 1.5-6.6 2.1-9.7 2.2-18.1-3.1-21.1-13.2-2.4-8.3-3.3-7.8 14-7.8H345v-2.8c0-3.6-4.1-12.1-7.1-14.9-4.9-4.5-14.1-6.5-20.4-4.4zm11 5.4c2 1.7 2.8 3.5 3.2 7l.6 4.7h-9.2c-9.1 0-9.1 0-9.1-2.5 0-3.6 2.5-9.1 4.7-10.4 3-1.7 7-1.3 9.8 1.2zm49.1-4.3c-2.7 1.1-5.4 2.4-6 3-1.7 1.7-3.6 1.1-3.6-1 0-1.9-.7-2-10-2s-10 .1-10 2c0 1.7.7 2 4 2h4v39h-4c-3.3 0-4 .3-4 2 0 1.9.7 2 14 2 13.2 0 14-.1 14-1.9 0-1.6-.8-2-3.7-2.3l-3.8-.3-.3-16.6-.2-16.6 4.9-2.2c6.8-2.9 10.4-2.7 13 .5 1.9 2.5 2.1 4 2.1 19V361h-3.5c-2.8 0-3.5.4-3.5 2 0 1.9.7 2 13.5 2 12.7 0 13.5-.1 13.5-1.9 0-1.6-.8-2-3.7-2.3l-3.8-.3-.5-18c-.6-20.2-1.2-22.4-7.5-25.1-4.6-1.9-9-1.7-14.9.6zm98.4-.7c-6.8 1.9-12 5.4-12 8.1v2.3l4.7-2.3c10.3-5.2 16.7-1.9 16.1 8.4l-.3 5.5-7.6 2.2c-13.2 4-16.9 6.9-16.9 13.4 0 2.7.9 4.2 4 7.3 5.1 4.8 9.3 5 17.2 1l5.5-2.7 2.5 2.7c3 3.2 7.7 3.7 13.3 1.4 4-1.7 4.7-4.6 1.2-4.6-1.3 0-3.2-.6-4.3-1.4-1.7-1.3-2-3.1-2.5-16.8-.6-16.3-1.6-20.3-6.2-23.2-3.3-2.2-9.6-2.7-14.7-1.3zm9.4 30.4c1.2 7.3.9 8.3-3 9.9-4.5 1.9-10 .4-11.6-3.2-1-2-.8-2.8 1.2-4.9 2-2.1 8.6-5.2 11.6-5.4.6-.1 1.4 1.6 1.8 3.6zm70-30.3c-4.9 2.2-11.5 8.7-13.6 13.4-2.8 6.2-2.6 15.9.4 21.8 7.8 15.7 29.5 19 41.4 6.2 12-12.7 8.8-32-6.5-40-4.3-2.3-6.6-2.8-12-2.8-3.6.1-8 .7-9.7 1.4zm12.3 3.7c7.5 2.8 11.4 11 11.4 23.8 0 10.2-4 16.7-10.6 17.3-4.4.3-6.5-.3-9.6-2.9-4.2-3.6-6.8-9.7-7.6-17.7-.7-8.3.2-12.8 3.4-16.7 4-4.7 7.7-5.8 13-3.8zm52.6.6l-5.3 5.8V318h-10c-9.2 0-10 .1-10 1.9 0 1.6.8 2 4.3 2.3l4.2.3v38l-4.2.3c-3.5.3-4.3.7-4.3 2.3 0 1.8.8 1.9 15.5 1.9 14.8 0 15.5-.1 15.5-2 0-1.7-.7-2-5-2h-5v-13.4c0-13.1.1-13.5 2.7-16.6 3.6-4.3 6.7-5.4 10.3-3.5 1.6.8 3.3 2.2 3.8 3 .6 1.2 1.3.1 2.6-4.2l1.8-5.7-2.6-2.3c-4.7-4-8.2-3.1-14.3 3.4zm33.7-4.1c-18.6 8.1-18.4 37.3.4 46 9.3 4.4 27.6 2.1 28.4-3.6.3-2 .1-2.2-2-1.6-10.9 3.4-17.3 2.5-22.5-3-2.9-3.1-6.3-11.3-6.3-15.1 0-1 3.3-1.3 15.5-1.3H683v-2.8c0-3.6-4.1-12.1-7.1-14.9-5.6-5.1-15-6.7-21.9-3.7zm11.4 3.5c2.6 1.2 4.4 4.6 4.8 9.4l.3 3-9.2.3-9.3.3v-2.6c0-3.6 2.5-9.1 4.7-10.4 2.4-1.4 5.6-1.4 8.7 0zM411 324v6h3c2.8 0 3-.2 3-4v-4h10.5c5.8 0 10.5.2 10.5.5 0 .2-6.5 9.3-14.5 20.2-8 10.8-14.5 20.3-14.5 21 0 1 4.7 1.3 23 1.3h23v-14h-2.9c-2.8 0-3 .2-3.3 4.7l-.3 4.8-11.2.3c-7.4.2-11.3-.1-11.3-.8 0-.6 6.5-9.7 14.5-20.3 8-10.7 14.5-19.9 14.5-20.5 0-.9-5.9-1.2-22-1.2h-22v6zm-190.7 74c-1.1 2.9-1.3 3-8.2 3-5.6 0-7.1.3-7.1 1.5s1.4 1.5 6.2 1.5h6.1l-2.3 2.5c-1.2 1.3-4.1 3.7-6.4 5.2-2.2 1.5-4.3 2.9-4.5 3-.3.2 0 .8.6 1.4 1.4 1.4 9.1-3.7 13-8.6 2.3-2.9 3.5-3.5 6.5-3.5 3.2 0 4.4.7 8 4.6 4.8 5.2 9.2 7.8 11.6 6.9 1.2-.4.8-1-1.9-2.6-1.9-1.2-4.9-3.5-6.7-5.2l-3.3-3.2 5.7-.5c3.3-.3 5.9-1 6.2-1.8.3-.9-2.2-1.2-10.3-1.2h-10.7l.7-3c.5-2.2.3-3-.7-3-.7 0-1.9 1.3-2.5 3zm46.7-1.5c0 1.1-1.2 1.5-5 1.5s-5 .4-5 1.5 1.2 1.5 5 1.5c4.3 0 5 .3 5 2 0 1.1.7 2 1.5 2s1.5-.9 1.5-2c0-1.8.7-2 5.9-2 5 0 5.9.3 6.4 2 .3 1.1 1 2 1.6 2 .6 0 1.1-.9 1.1-2 0-1.8.7-2 5.5-2 4.2 0 5.5-.3 5.5-1.5s-1.3-1.5-5.5-1.5-5.5-.3-5.5-1.5c0-.8-.7-1.5-1.5-1.5s-1.5.7-1.5 1.5c0 1.2-1.3 1.5-6 1.5s-6-.3-6-1.5c0-.8-.7-1.5-1.5-1.5s-1.5.7-1.5 1.5zm97 .4c0 2 4.7 6.4 5.9 5.7.9-.6.5-1.6-1.5-3.7-2.8-3-4.4-3.7-4.4-2zm-53 2.6c0 1.2 1.5 1.5 7.5 1.5h7.5v10h-8.5c-6.9 0-8.5.3-8.5 1.5s1.6 1.5 8.1 1.5h8.2l-.7 3.2c-1 5.4-5.7 11-11.4 13.9-4 2-5 2.9-4 3.7 1.6 1.3 7.9-1.6 12.1-5.6 3.3-3 6.6-9.6 6.7-13 0-2.1.3-2.2 10-2.2 8.2 0 10-.3 10-1.5s-1.7-1.5-9.5-1.5H329v-10h8.5c6.9 0 8.5-.3 8.5-1.5 0-1.3-2.6-1.5-17.5-1.5s-17.5.2-17.5 1.5zm63-.5c0 .5 4.7 1.1 10.8 1.2l10.7.3v16c0 15.8 0 16-2.2 16.3-1.3.2-2.3.8-2.3 1.3 0 1.6 2.5 2 5.3 1l2.7-1.1v-36h-12.5c-7.4 0-12.5.4-12.5 1z"/><path d="M272.7 409.2c-2.8 2.9-4.5 5.4-3.9 6 .5.5 1.6 0 2.7-1.2 2.4-2.6 3.7-2.5 6.4.4l2.3 2.4-6.1 2.2c-5.5 2-7.2 4-3.5 4 1.1 0 1.4 1.5 1.4 6.5 0 5.1.3 6.5 1.5 6.5.8 0 1.5-.5 1.5-1 0-.6 3.2-1 7.5-1s7.5.4 7.5 1c0 .5.7 1 1.5 1 1.2 0 1.5-1.4 1.5-6.4 0-5.7.2-6.4 2.2-7 2.9-.7 1.7-1.8-4.5-4.1l-4.9-1.7 3.6-3.7c5.2-5.4 4.8-6.1-3.5-6.1-5.9 0-7-.3-6.5-1.5 1.1-3-2-1.3-6.7 3.7zm14.3 2.3c-2.7 2.9-4.2 3.1-7.5.9-3.9-2.6-3-3.4 3.7-3.4h6.1l-2.3 2.5zm1 9l4.5 2.4-9.4.1c-5.2 0-9.1-.3-8.8-.7.7-.7 7.8-4.1 8.7-4.2.3 0 2.5 1.1 5 2.4zm2 7.5v3h-15v-6h15v3zm-30.3-22.3c-.8.8 6.5 5.3 7.5 4.7 1.4-.9.8-2-2.1-3.7-3.1-1.8-4.4-2.1-5.4-1zM362 420.5c0 14.8.1 15.5 2 15.5s2-.7 2-15.5-.1-15.5-2-15.5-2 .7-2 15.5zm10-2.5v10h17v-20h-17v10zm14-4.5v3.5h-11v-7h11v3.5zm0 8.5c0 3-.1 3-5.5 3s-5.5 0-5.5-3 .1-3 5.5-3 5.5 0 5.5 3zm-171-9.5c0 1.3 1.5 1.5 9.2 1.3 6.2-.2 9.3-.7 9.6-1.6.3-.9-2-1.2-9.2-1.2-8 0-9.6.3-9.6 1.5zm42.6 1.2c-1.1 1.1-.6 1.8 2.4 3.6 2.9 1.8 5.6 1.5 4.5-.4-.9-1.4-6.2-3.9-6.9-3.2zm71.4 10.7c0 6 .4 8.7 1.4 9.5.9.8 4.3 1.1 9.3.9l7.8-.3.9-3.8c.8-3 .7-4-.5-4.7-1.1-.7-1.5-.2-1.9 2.3l-.5 3.2h-13l-.3-7.8c-.2-5.9-.6-7.7-1.7-7.7-1.2 0-1.5 1.7-1.5 8.4zm-120.8-4.2c.3.9 3 1.4 7.6 1.6l7.2.3v5.4c0 5.4 0 5.5-3 5.5-2 0-3 .5-3 1.5 0 1.9 6 2.1 7.8.3.7-.7 1.2-3.8 1.2-7V422h7c5.6 0 7-.3 7-1.5 0-1.3-2.5-1.5-16.1-1.5-12.4 0-16 .3-15.7 1.2zm53.2 7.9c-3.9 5.1-4.3 6.1-2.6 6.7 1.1.3 8.2-8.9 8.2-10.7 0-2.3-1.9-1-5.6 4z"/><path d="M209.6 428.9c-5.2 5.3-2.8 6.7 2.5 1.5 2.1-2.1 3.9-4.2 3.9-4.6 0-1.9-2.9-.5-6.4 3.1zm22.4-3.1c0 1.3 7.4 8.2 8.8 8.2 2.1 0 1.3-1.5-2.6-5.3-3.6-3.5-6.2-4.7-6.2-2.9z"/></svg>